<?xml version="1.0" standalone="no"?><!DOCTYPE svg PUBLIC "-//W3C//DTD SVG 1.1//EN" "http://www.w3.org/Graphics/SVG/1.1/DTD/svg11.dtd"><svg t="1614130217252" class="icon" viewBox="0 0 1024 1024" version="1.1" xmlns="http://www.w3.org/2000/svg" p-id="4125" xmlns:xlink="http://www.w3.org/1999/xlink" width="200" height="200"><defs><style type="text/css"></style></defs><path d="M205.226667 180.650667A95.146667 95.146667 0 0 1 300.330667 85.333333h423.424c52.48 0 95.018667 42.666667 95.018666 95.317334 0 31.018667-15.018667 55.296-34.261333 72.448-18.816 16.810667-42.666667 27.904-65.024 34.56l-0.554667 0.128c-20.693333 6.613333-29.482667 19.114667-32.810666 35.114666-3.712 18.048-0.256 41.813333 9.301333 65.365334 7.082667 17.493333 24.448 29.866667 51.626667 46.72a232.618667 232.618667 0 0 1 104.021333 138.410666c12.074667 44.629333-25.557333 76.629333-61.994667 76.629334h-167.68a9.898667 9.898667 0 0 0-9.557333 7.253333l-71.168 259.498667a29.696 29.696 0 0 1-57.258667 0l-71.168-259.456a9.898667 9.898667 0 0 0-9.514666-7.296H234.965333c-36.437333 0-74.069333-32-61.994666-76.629334a232.576 232.576 0 0 1 104.021333-138.410666c27.178667-16.810667 44.544-29.226667 51.626667-46.72 9.557333-23.552 13.013333-47.317333 9.301333-65.365334-3.328-16-12.117333-28.501333-32.810667-35.114666l-0.554666-0.170667c-22.357333-6.613333-46.208-17.706667-65.024-34.517333-19.2-17.152-34.261333-41.429333-34.261334-72.448z m95.061333-35.797334a35.712 35.712 0 0 0-35.669333 35.797334c0 9.941333 4.394667 19.072 14.378666 27.989333 10.410667 9.258667 25.6 16.896 42.410667 21.888l1.706667 0.512c42.496 13.568 65.578667 44.16 72.96 79.786667 6.869333 33.450667-0.213333 69.674667-12.458667 99.84-15.274667 37.76-50.090667 59.306667-74.112 74.154666l-1.28 0.853334a173.098667 173.098667 0 0 0-77.952 103.338666 6.954667 6.954667 0 0 0 4.693333 1.450667h167.68c31.232 0 58.538667 20.906667 66.816 51.072L512 796.586667l42.538667-155.093334a69.290667 69.290667 0 0 1 66.773333-51.072h167.722667a6.954667 6.954667 0 0 0 4.693333-1.450666 173.098667 173.098667 0 0 0-77.909333-103.338667l-1.322667-0.853333c-24.021333-14.848-58.88-36.394667-74.112-74.154667-12.245333-30.165333-19.328-66.389333-12.416-99.84 7.338667-35.626667 30.421333-66.218667 72.96-79.786667l1.706667-0.512c16.810667-4.992 32-12.629333 42.368-21.888 9.984-8.96 14.378667-18.048 14.378666-27.989333a35.712 35.712 0 0 0-35.669333-35.797333H300.288z" p-id="4126" fill="#ffffff"></path></svg>