<?xml version="1.0" standalone="no"?><!DOCTYPE svg PUBLIC "-//W3C//DTD SVG 1.1//EN" "http://www.w3.org/Graphics/SVG/1.1/DTD/svg11.dtd"><svg t="1606222712286" class="icon" viewBox="0 0 1024 1024" version="1.1" xmlns="http://www.w3.org/2000/svg" p-id="7096" xmlns:xlink="http://www.w3.org/1999/xlink" width="200" height="200"><defs><style type="text/css"></style></defs><path d="M893.615 120.845c-19.08 0-31.801 12.72-31.801 31.801v737.789c0 31.801-31.802 63.602-63.603 63.602H238.51c-38.161 0-82.683-31.801-82.683-63.602v-69.963c0-31.801 38.162-50.882 76.323-50.882h534.26c19.082 0 31.802-12.72 31.802-31.801V114.484C798.211 44.522 747.33 0 671.006 0H238.51C168.547 0 98.584 38.161 98.584 114.484V915.875c6.36 57.243 63.602 101.765 120.845 108.125H798.21c69.963 0 127.205-57.242 127.205-120.845V152.646c0-12.72-12.72-31.801-31.801-31.801zM772.77 833.193H251.23c-19.08 0-31.801 12.72-31.801 31.8s12.72 31.802 31.8 31.802H772.77c19.08 0 31.801-12.72 31.801-31.801s-12.72-31.801-31.8-31.801z" p-id="7097"></path></svg>