<?xml version="1.0" standalone="no"?><!DOCTYPE svg PUBLIC "-//W3C//DTD SVG 1.1//EN" "http://www.w3.org/Graphics/SVG/1.1/DTD/svg11.dtd"><svg t="1606290345609" class="icon" viewBox="0 0 1024 1024" version="1.1" xmlns="http://www.w3.org/2000/svg" p-id="10691" xmlns:xlink="http://www.w3.org/1999/xlink" width="200" height="200"><defs><style type="text/css"></style></defs><path d="M923.623 942.636H691.208c-20.401 0-37-16.599-37-37V100.371c0-20.402 16.599-37 37-37h232.414c20.401 0 37 16.598 37 37v805.265c0.001 9.88-3.847 19.173-10.836 26.162-6.988 6.989-16.28 10.838-26.163 10.838z m-219.415-50h206.415l-0.001-779.265H704.208v779.265zM297.102 941.648a35.73 35.73 0 0 1-15.053-3.304l-193.578-89.14c-8.735-4.022-15.381-11.206-18.714-20.227-3.333-9.021-2.952-18.801 1.071-27.536l308.848-670.708c5.86-12.725 18.699-20.947 32.709-20.947a35.746 35.746 0 0 1 15.053 3.304l193.579 89.14c8.735 4.022 15.381 11.206 18.714 20.227 3.332 9.021 2.952 18.8-1.07 27.535l-308.85 670.71c-5.86 12.725-18.699 20.946-32.709 20.946zM122.098 809.644l168.152 77.431 297.14-645.282-168.152-77.432-297.14 645.283z" fill="#8a8a8a" p-id="10692"></path><path d="M923.875 942.568H691.46c-20.401 0-37-16.599-37-37V100.303c0-13.807 11.192-25 25-25s25 11.193 25 25v792.265h219.415c13.808 0 25 11.192 25 25s-11.192 25-25 25z" p-id="10693"></path><path d="M934.616 759.999H680.398c-13.807 0-25-11.193-25-25s11.193-25 25-25h254.218c13.808 0 25 11.193 25 25s-11.192 25-25 25zM291.967 940.262c-3.5 0-7.054-0.738-10.441-2.298l-193.579-89.14c-18.032-8.305-25.946-29.73-17.643-47.762l308.849-670.709c5.775-12.542 20.622-18.027 33.165-12.251 12.542 5.775 18.026 20.624 12.251 33.165L121.574 809.263l180.865 83.285c12.542 5.774 18.027 20.623 12.251 33.165-4.214 9.153-13.265 14.549-22.723 14.549z" p-id="10694"></path><path d="M372.894 796.149c-3.5 0-7.054-0.738-10.441-2.298l-193.579-89.14c-12.542-5.775-18.027-20.623-12.251-33.165 5.775-12.541 20.622-18.025 33.165-12.251l193.579 89.14c12.542 5.775 18.027 20.623 12.251 33.165-4.216 9.155-13.266 14.549-22.724 14.549z" p-id="10695"></path></svg>