<?xml version="1.0" standalone="no"?><!DOCTYPE svg PUBLIC "-//W3C//DTD SVG 1.1//EN" "http://www.w3.org/Graphics/SVG/1.1/DTD/svg11.dtd"><svg t="1606222835571" class="icon" viewBox="0 0 1024 1024" version="1.1" xmlns="http://www.w3.org/2000/svg" p-id="8680" xmlns:xlink="http://www.w3.org/1999/xlink" width="200" height="200"><defs><style type="text/css"></style></defs><path d="M757.39521908 572.26785702a212.14285703 212.14285703 0 0 1 36.16071489 3.6160719V166.46428567A80.35714326 80.35714326 0 0 0 713.19879071 90.125H578.19879071L512.30593341 136.73214326H271.23450531a80.35714326 80.35714326 0 0 0-80.35714324 75.93749999V773.16071433a80.35714326 80.35714326 0 0 0 80.35714324 75.9375h300.1339281A200.8928573 200.8928573 0 0 1 757.39521908 572.26785702zM713.19879071 476.24107163H271.23450531a20.0892854 20.0892854 0 0 1-20.08928623-20.08928623 20.0892854 20.0892854 0 0 1 20.08928623-20.0892854h441.9642854a20.0892854 20.0892854 0 0 1 20.08928541 20.0892854 20.0892854 20.0892854 0 0 1-20.08928541 20.08928623z m-462.05357163-160.71428569a80.35714326 80.35714326 0 0 1 80.35714326-80.35714324h321.42857135a80.35714326 80.35714326 0 0 1 80.35714243 80.35714325v26.91964269h-482.14285704z m212.54464353 244.68750001H260.38629044c-5.2232146 0-9.24107135-9.24107135-9.24107135-20.08928622s4.01785675-20.0892854 9.24107135-20.0892854h203.30357217c4.82142892 0 9.24107135 8.83928567 9.24107136 20.0892854s-4.41964325 20.0892854-9.24107136 20.08928622z" p-id="8681"></path><path d="M757.39521908 612.44642864a160.71428567 160.71428567 0 1 0 160.71428569 160.71428569 160.71428567 160.71428567 0 0 0-160.71428569-160.71428569z m84.77678569 183.21428596H753.37736234a20.0892854 20.0892854 0 0 1-20.08928622-20.08928623v-89.1964281a20.0892854 20.0892854 0 0 1 20.08928622-20.08928622 20.0892854 20.0892854 0 0 1 20.0892854 20.08928622v68.70535703h69.1071427a20.0892854 20.0892854 0 0 1 0 40.17857162z" p-id="8682"></path></svg>