<?xml version="1.0" standalone="no"?><!DOCTYPE svg PUBLIC "-//W3C//DTD SVG 1.1//EN" "http://www.w3.org/Graphics/SVG/1.1/DTD/svg11.dtd"><svg t="1608620799237" class="icon" viewBox="0 0 1024 1024" version="1.1" xmlns="http://www.w3.org/2000/svg" p-id="3913" xmlns:xlink="http://www.w3.org/1999/xlink" width="200" height="200"><defs><style type="text/css"></style></defs><path d="M876.9 553.5H723.6V329.8c0-8.1-3.9-15.7-10.6-20.3L537.1 185.7v-63.1h62.8c13.7 0 24.9-11.1 24.9-24.9 0-13.7-11.1-24.9-24.9-24.9H517c-0.8 0-1.6 0-2.4 0.1-0.8-0.1-1.6-0.1-2.4-0.1-13.7 0-24.9 11.1-24.9 24.9v85.2l-176 126.7c-6.5 4.7-10.3 12.2-10.3 20.2v223.7H147.7c-13.7 0-24.9 11.1-24.9 24.9v348c0 13.7 11.1 24.9 24.9 24.9H877c13.7 0 24.9-11.1 24.9-24.9v-348c-0.1-13.8-11.3-24.9-25-24.9z m-439.2 348V719.2h149.2v182.3H437.7z m414.3 0H636.6V694.4c0-13.7-11.1-24.9-24.9-24.9H412.8c-13.7 0-24.9 11.1-24.9 24.9v207.2H172.5V603.2h153.3c13.7 0 24.9-11.1 24.9-24.9V342.5l159.7-114.8 163.5 115v235.7c0 13.7 11.1 24.9 24.9 24.9H852v298.2z" fill="#353637" p-id="3914"></path><path d="M577.6 376.9l-81.9 81.9L447 410c-9.7-9.7-25.4-9.7-35.2 0-9.7 9.7-9.7 25.4 0 35.2l66.3 66.3c4.9 4.9 11.2 7.3 17.6 7.3 6.4 0 12.7-2.4 17.6-7.3l99.4-99.4c9.7-9.7 9.7-25.4 0-35.2-9.7-9.7-25.4-9.7-35.1 0z" fill="#353637" p-id="3915"></path></svg>