<?xml version="1.0" standalone="no"?><!DOCTYPE svg PUBLIC "-//W3C//DTD SVG 1.1//EN" "http://www.w3.org/Graphics/SVG/1.1/DTD/svg11.dtd"><svg t="1608626559697" class="icon" viewBox="0 0 1024 1024" version="1.1" xmlns="http://www.w3.org/2000/svg" p-id="6776" xmlns:xlink="http://www.w3.org/1999/xlink" width="200" height="200"><defs><style type="text/css"></style></defs><path d="M866.4 550.4H717v-218c0-7.9-3.8-15.3-10.3-19.8L535.3 192.1v-61.5h61.2c13.4 0 24.2-10.9 24.2-24.2 0-13.4-10.9-24.2-24.2-24.2h-80.7c-0.8 0-1.6 0-2.3 0.1-0.8-0.1-1.5-0.1-2.3-0.1-13.4 0-24.2 10.9-24.2 24.2v83L315.2 312.8c-6.3 4.6-10.1 11.9-10.1 19.7v218H155.8c-13.4 0-24.2 10.9-24.2 24.2v339.1c0 13.4 10.9 24.2 24.2 24.2H866.4c13.4 0 24.2-10.9 24.2-24.2V574.7c0-13.4-10.9-24.3-24.2-24.3z m-428 339.2V711.9h145.3v177.6H438.4z m403.7 0H632.2V687.7c0-13.4-10.9-24.2-24.2-24.2H414.2c-13.4 0-24.2 10.9-24.2 24.2v201.9H180V598.9h149.4c13.4 0 24.2-10.9 24.2-24.2V344.8L509.2 233l159.3 112v229.7c0 13.4 10.9 24.2 24.2 24.2h149.4v290.7z" fill="#ffffff" p-id="6777"></path><path d="M511.1 348.3c-53.6 0-97.2 43.6-97.2 97.2s43.6 97.2 97.2 97.2 97.2-43.6 97.2-97.2-43.6-97.2-97.2-97.2z m0 145.9c-26.9 0-48.8-21.9-48.8-48.8s21.9-48.8 48.8-48.8 48.8 21.9 48.8 48.8c-0.1 27-21.9 48.8-48.8 48.8z" fill="#ffffff" p-id="6778"></path></svg>