<?xml version="1.0" standalone="no"?><!DOCTYPE svg PUBLIC "-//W3C//DTD SVG 1.1//EN" "http://www.w3.org/Graphics/SVG/1.1/DTD/svg11.dtd"><svg t="1615181428872" class="icon" viewBox="0 0 1030 1024" version="1.1" xmlns="http://www.w3.org/2000/svg" p-id="5174" xmlns:xlink="http://www.w3.org/1999/xlink" width="201.171875" height="200"><defs><style type="text/css"></style></defs><path d="M851.2 0H172.8C76.8 0 0 76.8 0 172.8v684.8C0 947.2 76.8 1024 172.8 1024h684.8c96 0 172.8-76.8 172.8-172.8V172.8C1024 76.8 947.2 0 851.2 0z m128 832c0 76.8-57.6 147.2-147.2 147.2H192C96 979.2 44.8 921.6 44.8 832V172.8C57.6 70.4 115.2 44.8 192 44.8h640c96 0 147.2 64 147.2 147.2v640z" p-id="5175" fill="#ffffff"></path><path d="M422.4 422.4h-64c0-32 0-51.2 6.4-70.4 6.4-25.6 25.6-44.8 44.8-64 12.8-12.8 32-19.2 44.8-25.6 25.6-6.4 44.8-6.4 64-6.4 44.8 0 76.8 12.8 102.4 32 32 25.6 44.8 57.6 44.8 102.4 0 25.6-6.4 44.8-12.8 57.6-12.8 19.2-25.6 38.4-51.2 64-25.6 19.2-38.4 32-38.4 38.4-19.2 19.2-25.6 51.2-25.6 89.6h-64c0-38.4 6.4-64 12.8-89.6 6.4-12.8 25.6-38.4 51.2-64 25.6-19.2 38.4-32 44.8-38.4 12.8-12.8 19.2-32 19.2-57.6 0-19.2-6.4-38.4-19.2-51.2-12.8-19.2-38.4-32-70.4-32-38.4 0-64 12.8-83.2 44.8-6.4 19.2-6.4 44.8-6.4 70.4z m121.6 275.2V768h-64v-70.4h64z" p-id="5176" fill="#ffffff"></path></svg>