<?xml version="1.0" standalone="no"?><!DOCTYPE svg PUBLIC "-//W3C//DTD SVG 1.1//EN" "http://www.w3.org/Graphics/SVG/1.1/DTD/svg11.dtd"><svg t="1615181313102" class="icon" viewBox="0 0 1024 1024" version="1.1" xmlns="http://www.w3.org/2000/svg" p-id="2295" xmlns:xlink="http://www.w3.org/1999/xlink" width="200" height="200"><defs><style type="text/css"></style></defs><path d="M821.638095 516.87619c-12.190476 0-24.380952 9.752381-26.819047 21.942858-9.752381 168.228571-151.161905 299.885714-319.390477 299.885714-177.980952 0-321.828571-143.847619-321.828571-321.828572C153.6 338.895238 297.447619 195.047619 475.428571 195.047619c17.066667 0 36.571429 2.438095 53.638096 4.876191 12.190476 2.438095 26.819048-7.314286 29.257143-19.504762 2.438095-9.752381-7.314286-24.380952-21.942858-26.819048-19.504762-2.438095-41.447619-4.87619-60.952381-4.87619-204.8 0-370.590476 165.790476-370.590476 370.590476 0 204.8 165.790476 370.590476 370.590476 370.590476 195.047619 0 355.961905-151.161905 368.152381-346.209524 2.438095-14.628571-7.314286-26.819048-21.942857-26.819048z" p-id="2296" fill="#ffffff"></path><path d="M475.428571 728.990476c14.628571 0 24.380952-9.752381 24.380953-24.380952v-182.857143c2.438095-7.314286 0-14.628571-7.314286-21.942857L407.161905 414.47619c-9.752381-9.752381-24.380952-9.752381-34.133334 0s-9.752381 24.380952 0 34.133334l78.019048 78.019047V707.047619c0 9.752381 12.190476 21.942857 24.380952 21.942857zM889.904762 397.409524L733.866667 124.342857c-4.87619-7.314286-14.628571-12.190476-24.380953-12.190476s-17.066667 4.87619-21.942857 12.190476l-168.228571 273.066667c-4.87619 7.314286-4.87619 19.504762 0 26.819047 4.87619 9.752381 14.628571 14.628571 24.380952 14.628572h321.828572c9.752381 0 19.504762-4.87619 24.380952-14.628572 4.87619-9.752381 4.87619-19.504762 0-26.819047z m-336.457143 9.752381l158.476191-258.438095 146.285714 258.438095H553.447619z" p-id="2297" fill="#ffffff"></path><path d="M697.295238 234.057143v73.142857c0 9.752381 7.314286 14.628571 17.066667 14.628571s17.066667-7.314286 17.066666-14.628571v-73.142857c0-9.752381-7.314286-14.628571-17.066666-14.628572s-17.066667 4.87619-17.066667 14.628572z" p-id="2298" fill="#ffffff"></path><path d="M711.92381 358.4m-19.504762 0a19.504762 19.504762 0 1 0 39.009523 0 19.504762 19.504762 0 1 0-39.009523 0Z" p-id="2299" fill="#ffffff"></path></svg>