<?xml version="1.0" standalone="no"?><!DOCTYPE svg PUBLIC "-//W3C//DTD SVG 1.1//EN" "http://www.w3.org/Graphics/SVG/1.1/DTD/svg11.dtd"><svg t="1606295911486" class="icon" viewBox="0 0 1024 1024" version="1.1" xmlns="http://www.w3.org/2000/svg" p-id="3062" xmlns:xlink="http://www.w3.org/1999/xlink" width="200" height="200"><defs><style type="text/css"></style></defs><path d="M978.335825 1024h-932.67165c-14.285999 0-25.510713-11.224714-25.510712-25.510713s11.224714-25.510713 25.510712-25.510712h932.67165c14.285999 0 25.510713 11.224714 25.510712 25.510712s-11.734928 25.510713-25.510712 25.510713zM605.879422 244.90284h-320.414549c-14.285999 0-25.510713-11.224714-25.510713-25.510712s11.224714-25.510713 25.510713-25.510713h320.414549c14.285999 0 25.510713 11.224714 25.510713 25.510713s-11.224714 25.510713-25.510713 25.510712zM605.879422 479.091181h-131.635277c-14.285999 0-25.510713-11.224714-25.510712-25.510713s11.224714-25.510713 25.510712-25.510712h131.635277c14.285999 0 25.510713 11.224714 25.510713 25.510712s-11.224714 25.510713-25.510713 25.510713zM605.879422 712.769307h-131.635277c-14.285999 0-25.510713-11.224714-25.510712-25.510712s11.224714-25.510713 25.510712-25.510713h131.635277c14.285999 0 25.510713 11.224714 25.510713 25.510713s-11.224714 25.510713-25.510713 25.510712z" fill="#012733" p-id="3063"></path><path d="M747.208769 1024c-14.285999 0-25.510713-11.224714-25.510712-25.510713V74.491281c0-11.224714-17.347285-23.469856-40.306926-23.469856h-471.437967c-22.959641 0-40.306926 12.245142-40.306926 23.469856v923.998006c0 14.285999-11.224714 25.510713-25.510712 25.510713s-25.510713-11.224714-25.510713-25.510713V74.491281c0-41.837569 39.796712-74.491281 91.328351-74.491281h471.437967c51.021425 0 91.328351 32.653712 91.328351 74.491281v923.998006c0 14.285999-11.224714 25.510713-25.510713 25.510713zM865.068261 1024c-14.285999 0-25.510713-11.224714-25.510712-25.510713V215.310414c0-11.224714-17.347285-23.469856-40.306926-23.469856-14.285999 0-25.510713-11.224714-25.510713-25.510712s11.224714-25.510713 25.510713-25.510713c51.021425 0 91.328351 32.653712 91.328351 74.491281v783.689088c0 13.775785-11.224714 25.000498-25.510713 25.000498z" fill="#012733" p-id="3064"></path></svg>