<?xml version="1.0" standalone="no"?><!DOCTYPE svg PUBLIC "-//W3C//DTD SVG 1.1//EN" "http://www.w3.org/Graphics/SVG/1.1/DTD/svg11.dtd"><svg t="1609305414669" class="icon" viewBox="0 0 1083 1024" version="1.1" xmlns="http://www.w3.org/2000/svg" p-id="4682" xmlns:xlink="http://www.w3.org/1999/xlink" width="211.5234375" height="200"><defs><style type="text/css"></style></defs><path d="M902.475145 1023.921495c-17.21866-10.074748-31.061626-15.949504-42.209269-25.121449-33.338257-27.476585-44.4859-27.999949-77.19612 0-24.702759 21.156971-41.594317 23.054164-69.973704 7.68036-9.158862-4.998122-18.317724-10.231757-27.476586-15.373804-40.940112-23.041079-42.863473-27.280324-32.984986-72.538185 6.607465-30.263496-15.700906-58.682136-51.839158-61.495215-23.721452-1.884109-37.263483-13.084088-38.31021-35.078441a814.392906 814.392906 0 0 1 1.229904-100.747479c1.308409-17.270997 13.960722-27.33266 33.115827-29.269106 45.92515-4.644851 64.988666-31.689662 52.179344-74.369958-7.10466-23.551359 1.308409-39.252265 20.67286-50.805514 13.816797-8.295312 28.143874-15.700906 42.261605-23.551359 32.854146-18.108378 46.579354-16.786885 76.227898 7.314005 28.379387 23.054164 41.463476 23.119584 70.287722 0.353271 29.98873-23.695284 43.452257-24.859768 76.450328-6.68597 8.478489 4.684104 17.009315 9.355123 25.396215 14.117732 40.024226 22.609305 41.999923 26.861633 32.80181 70.654076-6.712137 31.964428 13.790629 59.454097 50.177478 62.476522 24.650422 2.041118 38.741985 13.34577 39.670956 36.635447a861.613381 861.613381 0 0 1-1.805604 100.852152c-1.308409 16.368194-13.371938 26.076588-31.571905 27.712099-44.4859 3.925226-69.790527 37.551333-53.644762 76.254067 3.925226 9.342039 2.263547 28.510228-4.213077 33.377509-27.685931 20.934541-58.132604 38.074697-89.25965 57.687745zM700.731588 607.559639c9.237366 68.547538-14.824272 114.564277-70.091461 128.224065-24.362572 6.005597-24.087806 21.248559-24.192479 39.252264-0.117757 18.422396 1.229904 33.141996 25.213038 38.846659 16.760717 3.925226 33.678443 15.556981 46.003655 28.156957 26.874717 27.476585 30.682187 62.450353 22.24295 99.190474 5.02429 3.022424 9.394375 5.128963 13.162592 8.007462 16.028008 12.246707 29.818637 15.125206 48.528884 0.92897 23.263509-17.663519 51.328878-29.609292 81.51387-18.880339 17.938285 6.385035 33.874705 18.186883 51.145701 26.704624 4.854197 2.381304 12.207454 3.925226 16.721465 2.014949 12.246707-5.233635 23.551359-12.665397 34.43732-18.736414-12.377548-62.175587 14.745767-115.139977 66.205487-127.399768 23.917713-5.678494 27.280324-18.841087 27.33266-39.422358s-2.917752-35.798065-27.476585-39.252264c-9.773814-1.386913-19.913982-6.764474-27.934529-12.874743-38.074697-28.99434-49.039163-68.037259-38.480303-114.001661-20.934541-13.084088-38.624229-30.970037-65.708292-9.904655-37.145727 28.902751-75.992385 26.613036-113.556802-1.557007-15.543897-11.657923-31.218635-13.528947-47.220474 0-5.403728 4.553263-12.207454 7.431762-17.951369 10.833626z m0 0" fill="#ffffff" p-id="4683"></path><path d="M921.708755 775.166809c-0.366354 59.035406-48.097108 95.670853-101.218507 94.362445-56.484009-1.50467-98.837203-36.635447-98.902623-96.455899 0-58.773724 48.123277-95.683937 101.048414-94.323192 55.986814 1.465418 99.24281 37.433577 99.072716 96.468983zM820.372491 729.529509c-24.859768 0.431775-44.4859 20.018655-44.394311 44.616741 0 25.566308 20.764448 45.532627 46.723279 44.983096a44.786834 44.786834 0 0 0 44.250387-44.891507c0.104673-25.854158-20.005571-45.166273-46.579355-44.70833z m0 0M540.569264 501.186001c-138.167972 0-250.586458-112.418486-250.586459-250.599543S402.401292 0 540.569264 0s250.599543 112.418486 250.599542 250.651879-112.418486 250.534122-250.599542 250.534122z m0-455.326272c-112.915682 0-204.79215 91.876468-204.79215 204.79215s91.91572 204.739813 204.79215 204.739813 204.805234-91.876468 204.805233-204.739813S653.49803 45.794309 540.569264 45.794309z" fill="#ffffff" p-id="4684"></path><path d="M592.918701 1021.487855H22.897311A22.897154 22.897154 0 0 1 0.000157 998.590701a540.1635 540.1635 0 0 1 540.569107-540.582191 22.897154 22.897154 0 1 1 0 45.794309c-265.149049 0-482.253325 209.65943-494.251435 471.890727h546.600872a22.897154 22.897154 0 0 1 0 45.794309z" fill="#ffffff" p-id="4685"></path></svg>