
<svg xmlns="http://www.w3.org/2000/svg" version="1.1" xmlns:xlink="http://www.w3.org/1999/xlink" preserveAspectRatio="none" x="0px" y="0px" width="1024px" height="1024px" viewBox="0 0 1024 1024">
<defs>
<g id="Layer0_0_MEMBER_0_MEMBER_0_MEMBER_0_MEMBER_0_FILL">
<path fill="#FFFFFF" stroke="none" d="
M 232.9 336.75
Q 233.85 335.1 235.75 334.75
L 235.75 334.65 184.7 334.65 184.7 334.7
Q 182.4 334.75 180.75 336.45 179.15 338.15 179.15 340.5 179.15 342.9 180.8 344.55 182.45 346.15 184.8 346.15
L 235.65 346.2
Q 232 345.45 232 340.5 232 338.25 232.9 336.75 Z"/>
</g>

<g id="Layer0_0_MEMBER_0_MEMBER_1_MEMBER_0_MEMBER_0_FILL">
<path fill="#FFC23A" stroke="none" d="
M 184.8 267.05
L 184.55 267.1 184.55 335.85 233 335.85
Q 234.7 335.85 235.95 334.65 237.15 333.45 237.15 331.75
L 237.15 271.15
Q 237.15 269.45 235.95 268.25 234.7 267.05 233 267.05
L 184.8 267.05 Z"/>
</g>

<g id="Layer0_0_MEMBER_0_MEMBER_2_MEMBER_0_FILL">
<path fill="#F9A431" stroke="none" d="
M 178.2 271.7
Q 178.1 272.35 178.1 274.2
L 177.95 341.05 178 342.05 178.05 342.05
Q 178.45 344.3 180.4 345.85 182.35 347.35 184.95 347.35
L 185.1 347.35 185.1 346.15
Q 185.05 346.15 184.9 346.15 185 346.15 184.95 344.6 184.8 342.25 184.8 340.9 184.8 339.6 185 337.3 185.15 335.85 184.95 335.8
L 185.3 335.85 185.1 278.6 185.25 278.6 185.25 267.1 184.95 267.05
Q 182.5 267.05 180.55 268.35 178.55 269.7 178.2 271.7 Z"/>
</g>

<g id="Layer0_0_MEMBER_0_MEMBER_3_MEMBER_0_FILL">
<path fill="#E7E5E5" stroke="none" d="
M 236.4 346.25
Q 233.4 343.35 234.45 339.2
L 236.1 335.6 181 334.85 181.3 346.25 236.4 346.25 Z"/>
</g>

<g id="Layer0_0_MEMBER_0_MEMBER_4_MEMBER_0_FILL">
<path fill="#CECECD" stroke="none" d="
M 235 337.5
Q 235.15 336.5 236.2 335.6
L 181.75 334.35 181 341.95
Q 183.8 339.9 191.5 338.55 206.85 335.85 235 337.5 Z"/>
</g>

<g id="Layer0_0_MEMBER_0_MEMBER_5_MEMBER_0_FILL">
<path fill="#FFC23A" stroke="none" d="
M 237.2 335.6
L 237.2 332.55 183.2 332.55
Q 181.7 332.55 180.75 333.4
L 180.5 333.65
Q 178.85 335.4 178.2 337.9 177.2 342.15 180.1 346.6 181.05 348.3 183.2 348.3
L 237.2 348.3 237.2 345.25 183.75 345.25
Q 183.25 345.3 182.75 345.05 181.75 344.5 181.75 342.85
L 181.75 338
Q 181.75 336.35 182.75 335.8
L 183.75 335.6 237.2 335.6 Z"/>
</g>

<g id="Layer0_0_MEMBER_0_MEMBER_6_MEMBER_0_FILL">
<path fill="#F9A431" stroke="none" d="
M 180.5 333.65
Q 178.85 335.4 178.2 337.9 177.2 342.15 180.1 346.6 181.05 348.3 183.2 348.3
L 193.1 348.3 193.1 345.25 183.75 345.25
Q 183.25 345.3 182.75 345.05 181.75 344.5 181.75 342.85
L 181.75 338
Q 181.75 336.35 182.75 335.8
L 183.75 335.6 193.1 335.6 193.1 332.55 183.2 332.55
Q 181.7 332.55 180.75 333.4
L 180.5 333.65 Z"/>
</g>

<g id="Layer0_0_MEMBER_0_MEMBER_7_MEMBER_0_FILL">
<path fill="#EA5645" stroke="none" d="
M 202.4 343.6
Q 201.35 341.25 199.8 340.7 198.55 340.45 196.8 340.45
L 195.3 340.45 196.7 341.95
Q 198.1 344 198 346.6
L 200.2 343.7 203.2 345.8
Q 202.95 344.75 202.4 343.6 Z"/>
</g>

<g id="Layer0_0_MEMBER_0_MEMBER_8_MEMBER_0_FILL">
<path fill="#F9A431" stroke="none" d="
M 193.1 267.05
L 184.8 267.05 184.8 332.55 193.1 332.55 193.1 267.05 Z"/>
</g>

<g id="Layer0_0_MEMBER_0_MEMBER_9_MEMBER_0_FILL">
<path fill="#EA5645" stroke="none" d="
M 192.9 278.75
Q 192.25 278.75 191.75 279.35 191.25 280 191.25 280.85
L 191.25 281.4
Q 191.25 282.25 191.75 282.9 192.25 283.5 192.9 283.5
L 224.3 283.5
Q 225 283.5 225.45 282.9 225.95 282.25 225.95 281.4
L 225.95 280.85
Q 225.95 280 225.45 279.35 225 278.75 224.3 278.75
L 192.9 278.75 Z"/>
</g>

<g id="Layer0_0_MEMBER_0_MEMBER_10_MEMBER_0_FILL">
<path fill="#EA5645" stroke="none" d="
M 197.75 285.1
Q 197.25 285.1 196.9 285.75 196.55 286.35 196.55 287.25
L 196.55 287.75
Q 196.55 288.65 196.9 289.3 197.25 289.9 197.75 289.9
L 220.75 289.9
Q 221.25 289.9 221.6 289.3 221.95 288.65 221.95 287.75
L 221.95 287.25
Q 221.95 286.35 221.6 285.75 221.25 285.1 220.75 285.1
L 197.75 285.1 Z"/>
</g>

<g id="Layer0_0_MEMBER_1_MEMBER_0_MEMBER_0_FILL">
<path fill="#FFFFFF" stroke="none" d="
M 205.75 360.3
Q 207.4 361.9 209.75 361.9
L 260.6 361.95
Q 256.95 361.2 256.95 356.25 256.95 353.95 257.85 352.5 258.8 350.85 260.7 350.55
L 260.7 350.45 209.6 350.45
Q 207.3 350.55 205.7 352.2 204.1 353.9 204.1 356.25 204.1 358.65 205.75 360.3 Z"/>
</g>

<g id="Layer0_0_MEMBER_2_MEMBER_0_MEMBER_0_FILL">
<path fill="#EA5645" stroke="none" d="
M 260.85 284.05
Q 259.65 282.85 257.95 282.85
L 209.5 282.85 209.5 351.6 209.7 351.65 257.95 351.65
Q 259.65 351.65 260.85 350.45 262.05 349.25 262.05 347.55
L 262.05 286.95
Q 262.05 285.25 260.85 284.05 Z"/>
</g>

<g id="Layer0_0_MEMBER_3_MEMBER_0_FILL">
<path fill="#D13431" stroke="none" d="
M 203.15 287.5
Q 203.05 288.1 203.05 289.95
L 202.9 356.8 202.95 357.8 203 357.8
Q 203.4 360.05 205.3 361.6 207.3 363.1 209.85 363.1
L 210 363.1 210.05 361.95
Q 210 361.95 209.85 361.9 209.95 361.95 209.85 360.4 209.7 358.1 209.7 356.65 209.7 355.3 209.9 353.05 210.0494140625 351.605859375 209.85 351.6
L 210.2 351.6 210 294.35 210.2 294.35 210.2 282.85 209.85 282.85
Q 207.4 282.85 205.5 284.15 203.5 285.45 203.15 287.5 Z"/>
</g>

<g id="Layer0_0_MEMBER_4_MEMBER_0_FILL">
<path fill="#E7E5E5" stroke="none" d="
M 205.95 350.65
L 206.2 362 261.3 362
Q 258.35 359.1 259.4 354.95
L 261.05 351.35 205.95 350.65 Z"/>
</g>

<g id="Layer0_0_MEMBER_5_MEMBER_0_FILL">
<path fill="#CECECD" stroke="none" d="
M 206.7 350.1
L 205.95 357.7
Q 208.75 355.65 216.45 354.3 231.8 351.6 259.95 353.25 260.1 352.25 261.1 351.35
L 206.7 350.1 Z"/>
</g>

<g id="Layer0_0_MEMBER_6_MEMBER_0_FILL">
<path fill="#EA5645" stroke="none" d="
M 205.45 349.4
Q 203.75 351.25 203.15 353.7 202.15 357.9 205.05 362.4 205.95 364.05 208.15 364.05
L 262.15 364.05 262.15 361.05 208.7 361.05
Q 208.2 361.1 207.7 360.8 206.7 360.25 206.7 358.6
L 206.7 353.75
Q 206.7 352.1 207.7 351.55
L 208.7 351.35 262.15 351.35 262.15 348.3 208.15 348.3
Q 206.65 348.3 205.7 349.15
L 205.45 349.4 Z"/>
</g>

<g id="Layer0_0_MEMBER_7_MEMBER_0_FILL">
<path fill="#D13431" stroke="none" d="
M 218 351.35
L 218 348.3 208.15 348.3
Q 206.65 348.3 205.7 349.15
L 205.45 349.4
Q 203.75 351.25 203.15 353.7 202.15 357.9 205.05 362.4 205.95 364.05 208.15 364.05
L 218 364.05 218 361.05 208.7 361.05
Q 208.2 361.1 207.7 360.8 206.7 360.25 206.7 358.6
L 206.7 353.75
Q 206.7 352.1 207.7 351.55
L 208.7 351.35 218 351.35 Z"/>
</g>

<g id="Layer0_0_MEMBER_8_MEMBER_0_FILL">
<path fill="#FFC23A" stroke="none" d="
M 227.35 359.35
Q 226.3 357 224.75 356.45 223.5 356.2 221.75 356.2
L 220.25 356.25 221.65 357.75
Q 223.05 359.75 222.95 362.35
L 225.15 359.45 228.15 361.55
Q 227.9 360.5 227.35 359.35 Z"/>
</g>

<g id="Layer0_0_MEMBER_9_MEMBER_0_FILL">
<path fill="#D13431" stroke="none" d="
M 218 282.85
L 209.7 282.85 209.7 348.3 218 348.3 218 282.85 Z"/>
</g>

<g id="Layer0_0_MEMBER_10_MEMBER_0_MEMBER_0_FILL">
<path fill="#FFC23A" stroke="none" d="
M 228.8 290.45
L 221.55 290.45 214 321.8 220.15 321.8 221.4 315.05 228.8 315.05 230.05 321.8 236.35 321.8 228.8 290.45
M 227.75 309.7
L 222.45 309.7 225.1 295.85 227.75 309.7 Z"/>
</g>

<g id="Layer0_0_MEMBER_11_MEMBER_0_FILL">
<path fill="#F9A431" stroke="none" d="
M 231.4 306.2
L 231.4 344 255.6 344 255.6 306.2 231.4 306.2 Z"/>
</g>

<g id="Layer0_0_MEMBER_12_MEMBER_0_MEMBER_0_FILL">
<path fill="#22B1B6" stroke="none" d="
M 242.2 311.5
L 236.35 311.5 236.35 337.2 243 337.2
Q 247.25 337.2 249.4 335.65 251.95 333.8 251.95 329.7 251.95 324.7 247.3 323.6 248.9 323.15 249.9 321.85 251.1 320.3 251.1 318.05 251.1 311.5 242.2 311.5
M 241.2 332.8
L 241.2 325.8 243.35 325.8
Q 246.95 325.8 246.95 329.35 246.95 331.35 245.85 332.15 244.95 332.8 243 332.8
L 241.2 332.8
M 241.2 315.8
L 242.65 315.8
Q 244.45 315.8 245.3 316.4 246.15 317.1 246.15 318.65 246.15 321.75 243.05 321.75
L 241.2 321.75 241.2 315.8 Z"/>
</g>
</defs>

<g transform="matrix( 8, 0, 0, 8, -1248.35,-2012.4) ">
<use xlink:href="#Layer0_0_MEMBER_0_MEMBER_0_MEMBER_0_MEMBER_0_FILL"/>
</g>

<g transform="matrix( 8, 0, 0, 8, -1248.35,-2012.4) ">
<use xlink:href="#Layer0_0_MEMBER_0_MEMBER_1_MEMBER_0_MEMBER_0_FILL"/>
</g>

<g transform="matrix( 8, 0, 0, 8, -1248.35,-2012.4) ">
<use xlink:href="#Layer0_0_MEMBER_0_MEMBER_2_MEMBER_0_FILL"/>
</g>

<g transform="matrix( 8, 0, 0, 8, -1248.35,-2012.4) ">
<use xlink:href="#Layer0_0_MEMBER_0_MEMBER_3_MEMBER_0_FILL"/>
</g>

<g transform="matrix( 8, 0, 0, 8, -1248.35,-2012.4) ">
<use xlink:href="#Layer0_0_MEMBER_0_MEMBER_4_MEMBER_0_FILL"/>
</g>

<g transform="matrix( 8, 0, 0, 8, -1248.35,-2012.4) ">
<use xlink:href="#Layer0_0_MEMBER_0_MEMBER_5_MEMBER_0_FILL"/>
</g>

<g transform="matrix( 8, 0, 0, 8, -1248.35,-2012.4) ">
<use xlink:href="#Layer0_0_MEMBER_0_MEMBER_6_MEMBER_0_FILL"/>
</g>

<g transform="matrix( 8, 0, 0, 8, -1248.35,-2012.4) ">
<use xlink:href="#Layer0_0_MEMBER_0_MEMBER_7_MEMBER_0_FILL"/>
</g>

<g transform="matrix( 8, 0, 0, 8, -1248.35,-2012.4) ">
<use xlink:href="#Layer0_0_MEMBER_0_MEMBER_8_MEMBER_0_FILL"/>
</g>

<g transform="matrix( 8, 0, 0, 8, -1248.35,-2012.4) ">
<use xlink:href="#Layer0_0_MEMBER_0_MEMBER_9_MEMBER_0_FILL"/>
</g>

<g transform="matrix( 8, 0, 0, 8, -1248.35,-2012.4) ">
<use xlink:href="#Layer0_0_MEMBER_0_MEMBER_10_MEMBER_0_FILL"/>
</g>

<g transform="matrix( 8, 0, 0, 8, -1248.35,-2012.4) ">
<use xlink:href="#Layer0_0_MEMBER_1_MEMBER_0_MEMBER_0_FILL"/>
</g>

<g transform="matrix( 8, 0, 0, 8, -1248.35,-2012.4) ">
<use xlink:href="#Layer0_0_MEMBER_2_MEMBER_0_MEMBER_0_FILL"/>
</g>

<g transform="matrix( 8, 0, 0, 8, -1248.35,-2012.4) ">
<use xlink:href="#Layer0_0_MEMBER_3_MEMBER_0_FILL"/>
</g>

<g transform="matrix( 8, 0, 0, 8, -1248.35,-2012.4) ">
<use xlink:href="#Layer0_0_MEMBER_4_MEMBER_0_FILL"/>
</g>

<g transform="matrix( 8, 0, 0, 8, -1248.35,-2012.4) ">
<use xlink:href="#Layer0_0_MEMBER_5_MEMBER_0_FILL"/>
</g>

<g transform="matrix( 8, 0, 0, 8, -1248.35,-2012.4) ">
<use xlink:href="#Layer0_0_MEMBER_6_MEMBER_0_FILL"/>
</g>

<g transform="matrix( 8, 0, 0, 8, -1248.35,-2012.4) ">
<use xlink:href="#Layer0_0_MEMBER_7_MEMBER_0_FILL"/>
</g>

<g transform="matrix( 8, 0, 0, 8, -1248.35,-2012.4) ">
<use xlink:href="#Layer0_0_MEMBER_8_MEMBER_0_FILL"/>
</g>

<g transform="matrix( 8, 0, 0, 8, -1248.35,-2012.4) ">
<use xlink:href="#Layer0_0_MEMBER_9_MEMBER_0_FILL"/>
</g>

<g transform="matrix( 8, 0, 0, 8, -1248.35,-2012.4) ">
<use xlink:href="#Layer0_0_MEMBER_10_MEMBER_0_MEMBER_0_FILL"/>
</g>

<g transform="matrix( 8, 0, 0, 8, -1248.35,-2012.4) ">
<use xlink:href="#Layer0_0_MEMBER_11_MEMBER_0_FILL"/>
</g>

<g transform="matrix( 8, 0, 0, 8, -1248.35,-2012.4) ">
<use xlink:href="#Layer0_0_MEMBER_12_MEMBER_0_MEMBER_0_FILL"/>
</g>
</svg>
