
<svg xmlns="http://www.w3.org/2000/svg" version="1.1" xmlns:xlink="http://www.w3.org/1999/xlink" preserveAspectRatio="none" x="0px" y="0px" width="1024px" height="1024px" viewBox="0 0 1024 1024">
<defs>
<g id="Layer0_0_MEMBER_0_MEMBER_0_FILL">
<path fill="#63A343" stroke="none" d="
M 498.4 296
L 494.4 296 494.4 301.55
Q 494.4 302.4 495 302.95 495.6 303.55 496.4 303.55 497.25 303.55 497.8 302.95 498.4 302.4 498.4 301.55
L 498.4 296 Z"/>
</g>

<g id="Layer0_0_MEMBER_1_MEMBER_0_FILL">
<path fill="#63A343" stroke="none" d="
M 485.85 292.7
L 485.05 294.5 485.35 294.65
Q 488.1 295.9 491.1 296.6 492.45 296.9 493.8 297.05
L 497.8 297.2 499.1 297.1
Q 501.75 296.9 504.85 296
L 509.05 294.3
Q 509.8 293.95 511.75 292.75
L 512.4 292.3
Q 513.05 291.9 513.45 291.5
L 514 291.1 515.95 289.35
Q 517 288.3 517.75 287.35
L 519.35 285.2 521.4 281.6 523.2 276.4
Q 523.25 276.35 523.5 275.1 523.8 273.4 523.85 272.45
L 523.9 271.8
Q 524 270.5 523.95 269.8
L 523.9 267.85
Q 523.65 265.65 523.25 264 523.15 263.45 522.75 262.1
L 521.9 259.65 520.8 257.4
Q 520.1 256 519.05 254.55
L 518.3 253.45 515.65 250.55
Q 514.85 249.75 513.7 248.85
L 512.6 248
Q 510.75 246.7 508.8 245.75
L 508.05 245.4 507.25 247.15 507.95 247.5
Q 509.95 248.45 511.45 249.6
L 512.5 250.35
Q 512.85 250.6 514.3 251.95
L 516 253.7 516.75 254.65 517.45 255.65
Q 518.3 256.85 519.1 258.3
L 520.1 260.4 521.4 264.45
Q 521.8 266.35 521.95 268
L 522 271.7 521.95 272.3 521.35 275.95 520.6 278.4
Q 520.3 279.35 519.65 280.75
L 517 285.15 516.25 286.15 513.7 288.8 511.3 290.7 510.65 291.1
Q 509.3 292.05 508.2 292.55
L 504.25 294.15
Q 501.6 294.95 498.95 295.15
L 497.7 295.25 495.25 295.2 491.5 294.7
Q 488.65 294.05 486.15 292.85
L 485.85 292.7 Z"/>
</g>

<g id="Layer0_0_MEMBER_2_MEMBER_0_FILL">
<path fill="#63A343" stroke="none" d="
M 482.55 297.25
Q 482.85 298 483.6 298.4 484.3 298.75 485.1 298.45 485.85 298.15 486.2 297.45
L 511.1 244.4
Q 511.45 243.65 511.15 242.9 510.9 242.15 510.15 241.75 509.4 241.4 508.6 241.7 507.85 242 507.5 242.75
L 482.65 295.75
Q 482.3 296.5 482.55 297.25 Z"/>
</g>

<g id="Layer0_0_MEMBER_3_MEMBER_0_FILL">
<path fill="#24B4D5" stroke="none" d="
M 483.75 251.25
L 481.15 253.4 481.05 253.55 480.35 254.2 479.2 255.5 478.25 256.8
Q 477.35 258.1 476.75 259.25
L 475.1 263.3
Q 474.8 264.05 474.65 264.9 474.2 266.75 474.15 268.2
L 474.05 269.3 474.15 272.1
Q 474.25 273.25 474.45 274.35
L 475.35 277.7
Q 475.75 278.9 476.25 279.9 476.85 281.2 477.35 282
L 479.35 284.85
Q 480.6 286.25 480.9 286.5
L 481.7 287.3 483.9 289.05 484.5 289.4
Q 485.7 290.2 486.8 290.75
L 490.4 292.2
Q 492.6 292.9 495.3 293.15
L 498.65 293.2 502.1 292.7
Q 504.6 292.15 507 291.05 510.7 289.25 513.2 286.75
L 514 285.95
Q 514.7 285.25 515.45 284.25
L 516.15 283.35
Q 517.5 281.45 518.55 279
L 519.7 275.3
Q 520.1 273.45 520.25 272
L 520.25 268.05 519.7 264.7 518.15 260.25 515.7 256.25 515 255.35
Q 514.8 255.05 513.5 253.65
L 510.45 251.15
Q 509.2 250.25 507.6 249.45
L 504 248 503.5 247.85
Q 501.1 247.2 499.1 247.05
L 496.85 246.95
Q 496.35 246.95 496.05 247
L 495.7 247 494.6 247.1
Q 491.3 247.5 488 248.85
L 487 249.35
Q 485.3 250.15 483.75 251.25 Z"/>
</g>

<g id="Layer0_0_MEMBER_4_MEMBER_0_FILL">
<path fill="#63A343" stroke="none" d="
M 501.7 306.25
L 501.7 300.85 491.3 300.85 491.3 306.25 501.7 306.25 Z"/>
</g>

<g id="Layer0_0_MEMBER_5_MEMBER_0_FILL">
<path fill="#63A343" stroke="none" d="
M 479 306.25
L 479 310.1 514.15 310.1 514.15 306.25 479 306.25 Z"/>
</g>

<g id="Layer0_0_MEMBER_6_MEMBER_0_FILL">
<path fill="#61313E" stroke="none" d="
M 448.15 337.15
Q 447.3 337.15 446.65 337.65 446.05 338.15 446.05 338.8
L 446.15 354.2
Q 446.15 354.9 446.75 355.35 447.35 355.8 448.2 355.8
L 525.5 355.5
Q 526.35 355.5 526.95 355 527.55 354.55 527.55 353.85
L 527.5 338.45
Q 527.5 337.8 526.9 337.3 526.25 336.85 525.4 336.85
L 448.15 337.15 Z"/>
</g>

<g id="Layer0_0_MEMBER_7_MEMBER_0_FILL">
<path fill="#63A343" stroke="none" d="
M 448.15 337.15
Q 447.3 337.15 446.65 337.65 446.05 338.15 446.05 338.8
L 446.15 354.2
Q 446.15 354.9 446.75 355.35 447.35 355.8 448.2 355.8
L 525.5 355.5
Q 526.35 355.5 526.95 355 527.55 354.55 527.55 353.85
L 527.5 338.45
Q 527.5 337.8 526.9 337.3 526.25 336.85 525.4 336.85
L 448.15 337.15 Z"/>
</g>

<g id="Layer0_0_MEMBER_8_MEMBER_0_FILL">
<path fill="#22B1B6" stroke="none" d="
M 454.15 322.95
Q 453.35 322.95 452.8 323.3 452.25 323.7 452.25 324.2
L 452.3 335.9
Q 452.3 336.4 452.85 336.8 453.4 337.15 454.2 337.15
L 525.55 336.85
Q 526.35 336.85 526.95 336.45 527.5 336.1 527.5 335.55
L 527.45 323.85
Q 527.45 323.35 526.85 323 526.3 322.6 525.5 322.65
L 454.15 322.95 Z"/>
</g>

<g id="Layer0_0_MEMBER_9_MEMBER_0_FILL">
<path fill="#EA5645" stroke="none" d="
M 469 308.65
Q 468.3 308.65 467.8 309.05 467.3 309.4 467.3 309.9
L 467.35 321.6
Q 467.35 322.1 467.85 322.5 468.35 322.85 469.05 322.85
L 531.7 322.6
Q 532.4 322.6 532.9 322.25 533.4 321.9 533.4 321.35
L 533.35 309.65
Q 533.35 309.15 532.85 308.75 532.35 308.4 531.65 308.4
L 469 308.65 Z"/>
</g>

<g id="Layer0_0_MEMBER_10_MEMBER_0_FILL">
<path fill="#D13431" stroke="none" d="
M 467.35 320.25
L 467.35 322
Q 467.45 322.85 469.05 322.85
L 531.7 322.6
Q 532.4 322.6 532.9 322.35 533.4 322.1 533.4 321.75
L 533.4 319.95 467.35 320.25 Z"/>
</g>

<g id="Layer0_0_MEMBER_11_MEMBER_0_FILL">
<path fill="#FFC23A" stroke="none" d="
M 480.8 310.55
Q 478.8 310.6 477.45 311.85 476.05 313.15 476.05 314.9 476.05 316.7 477.45 317.95 478.85 319.25 480.85 319.2 482.85 319.2 484.2 317.95 485.6 316.65 485.6 314.9 485.6 313.1 484.2 311.85 482.8 310.55 480.8 310.55 Z"/>
</g>

<g id="Layer0_0_MEMBER_12_MEMBER_0_FILL">
<path fill="#D13431" stroke="none" d="
M 472.45 320.25
L 472.5 322.85 504.55 322.7 504.55 320.1 472.45 320.25 Z"/>
</g>

<g id="Layer0_0_MEMBER_13_MEMBER_0_FILL">
<path fill="#179998" stroke="none" d="
M 452.15 332.7
L 452.15 335.7
Q 452.15 336.3 452.75 336.75 453.3 337.15 454.1 337.15
L 525.55 336.85
Q 526.35 336.85 526.95 336.4 527.5 335.95 527.5 335.35
L 527.45 332.4 452.15 332.7 Z"/>
</g>

<g id="Layer0_0_MEMBER_14_MEMBER_0_FILL">
<path fill="#FFC23A" stroke="none" d="
M 485 322.8
L 469.05 322.85 469.1 337.05 485.05 337 485 322.8 Z"/>
</g>

<g id="Layer0_0_MEMBER_15_MEMBER_0_FILL">
<path fill="#FFC23A" stroke="none" d="
M 504.5 322.7
L 502.25 322.75 502.35 336.95 504.55 336.9 504.5 322.7 Z"/>
</g>

<g id="Layer0_0_MEMBER_16_MEMBER_0_FILL">
<path fill="#F9A431" stroke="none" d="
M 485.05 332.55
L 469.1 332.65 469.1 337.05 485.05 337 485.05 332.55 Z"/>
</g>

<g id="Layer0_0_MEMBER_17_MEMBER_0_FILL">
<path fill="#F9A431" stroke="none" d="
M 504.55 332.5
L 502.3 332.5 502.35 336.95 504.55 336.9 504.55 332.5 Z"/>
</g>

<g id="Layer0_0_MEMBER_18_MEMBER_0_FILL">
<path fill="#4F823C" stroke="none" d="
M 446.25 350.8
L 446.25 354.2
Q 446.25 354.85 446.85 355.35 447.5 355.8 448.35 355.8
L 525.6 355.5
Q 526.45 355.5 527.1 355 527.7 354.55 527.7 353.85
L 527.7 350.45 446.25 350.8 Z"/>
</g>

<g id="Layer0_0_MEMBER_19_MEMBER_0_FILL">
<path fill="#EA5645" stroke="none" d="
M 513.95 336.9
L 510.9 336.9 511 355.55 514.05 355.55 513.95 336.9 Z"/>
</g>

<g id="Layer0_0_MEMBER_20_MEMBER_0_FILL">
<path fill="#EA5645" stroke="none" d="
M 518.7 336.85
L 515.7 336.9 515.75 355.55 518.8 355.5 518.7 336.85 Z"/>
</g>

<g id="Layer0_0_MEMBER_21_MEMBER_0_FILL">
<path fill="#D13431" stroke="none" d="
M 513.9 350.55
L 510.95 350.55 511 355.55 513.95 355.55 513.9 350.55 Z"/>
</g>

<g id="Layer0_0_MEMBER_22_MEMBER_0_FILL">
<path fill="#D13431" stroke="none" d="
M 518.75 350.5
L 515.75 350.5 515.75 355.55 518.8 355.5 518.75 350.5 Z"/>
</g>

<g id="Layer0_0_MEMBER_23_MEMBER_0_FILL">
<path fill="#16A2B9" stroke="none" d="
M 476.45 280.35
L 477.95 283 479.35 284.85
Q 480.6 286.25 480.9 286.5
L 481.7 287.3 483.9 289.05 484.5 289.4
Q 485.35 290 486.75 290.75
L 490.35 292.2
Q 492.65 292.9 495.25 293.15
L 498.65 293.2 502.1 292.7
Q 504.6 292.15 507 291.05 510.6 289.3 513.2 286.75
L 514 285.95
Q 514.7 285.25 515.45 284.25
L 516.1 283.35
Q 517.65 281.2 518.5 279
L 519.25 276.9
Q 519.55 276.05 519.7 275.3 520.15 273.4 520.2 272
L 520.2 268.05
Q 520.15 266.95 519.9 265.8
L 519 262.45
Q 518.7 261.5 518.1 260.25
L 517 258.15 515 255.35 513.05 253.25 511.35 251.8 510.85 251.45 511.05 251.85
Q 511.65 253.1 511.95 254.05
L 512.3 255.15
Q 512.55 255.8 512.6 256.3
L 513.2 259.65 513.2 263.6
Q 513.05 265.05 512.65 266.9
L 511.5 270.55
Q 510.45 273.05 509.05 274.95
L 506.95 277.55 506.15 278.35
Q 503.45 280.95 499.95 282.6 497.7 283.65 495.05 284.3 493.45 284.6 492.7 284.65
L 491.6 284.75
Q 490.1 284.85 489.35 284.8
L 488.25 284.75
Q 485.95 284.55 483.3 283.8
L 479.7 282.35
Q 478.3 281.6 477.45 281
L 476.45 280.35 Z"/>
</g>

<g id="Layer0_0_MEMBER_24_MEMBER_0_FILL">
<path fill="#4F823C" stroke="none" d="
M 501.7 303
L 501.7 300.85 491.3 300.85 491.3 303 501.7 303 Z"/>
</g>

<g id="Layer0_0_MEMBER_25_MEMBER_0_MEMBER_0_FILL">
<path fill="#206787" stroke="none" d="
M 508.2 264.2
L 507.95 264
Q 507.8 263.85 507.8 264.2 507.8 264.3 507.6 264.2 507.55 264.05 507.35 264.25
L 507.35 264.35
Q 507.3484375 264.2984375 507.3 264.25 507.2 264.05 507.2 264.4 507.15 264.55 507.1 264.4 507 264.3 507 264.2 506.9 263.95 506.75 264.1
L 506.55 264.4
Q 506.5 264.55 506.65 264.55
L 506.9 264.55
Q 507.05 264.7 506.6 264.7 506.2 264.8 506.8 264.8 506.9 264.8 506.9 265 506.9 265.05 506.75 265.2 506.75 265.25 507.15 265.25
L 507.5 265.4
Q 507.65 265.45 508.2 265 508.35 264.9 508.45 264.6
L 508.2 264.2 Z"/>
</g>

<g id="Layer0_0_MEMBER_25_MEMBER_1_MEMBER_0_FILL">
<path fill="#206787" stroke="none" d="
M 498.6 277.9
Q 498.4 277.8 498.1 277.8 497.8 277.8 497.55 278.2 497.05 278.55 497.1 278.9 497.2 279.4 496.75 279.7 496.5 279.85 496.5 280.35 496.5 280.95 496.65 281.1 496.75 281.15 497.05 281.85 497.5 282.55 498 282.85 498.85 283.35 498 286.6 497.8 287.25 497.65 288.55 497.5 289.8 497.55 290.5 497.6 291.1 498.25 291.45 498.75 291.7 499.2 291.65 499.75 291.6 498.95 291.1 498.75 290.95 498.8 290.5 498.85 290.05 499.05 289.8 499.25 289.55 499.1 289.2 499.05 289.05 499.15 288.95 499.2 288.85 499.3 288.7 499.7 288.2 500 287.55 500.15 287.2 500.65 287.2 500.75 287.15 500.95 286.8 501.1 286.45 501.25 286.4 501.4 286.35 502.1 285.3 502.25 285.1 502.35 284.75 502.5 284.4 503 284.2 503.55 284 503.7 283.7 503.75 283.6 503.9 282.95 504.05 282.4 504.6 281.5 505.05 280.85 504 280.45
L 502.45 280
Q 502.1 279.9 501.9 279.3 501.65 278.8 500.65 278.65 499.85 278 499.4 278.05 499.05 278.15 498.6 277.9 Z"/>
</g>

<g id="Layer0_0_MEMBER_25_MEMBER_2_MEMBER_0_FILL">
<path fill="#206787" stroke="none" d="
M 500.55 290.5
L 500.35 290.5 500.1 290.55
Q 500 290.7 500.05 290.75 500.35 291.05 500.7 290.75
L 500.75 290.55 500.55 290.5 Z"/>
</g>

<g id="Layer0_0_MEMBER_25_MEMBER_3_MEMBER_0_FILL">
<path fill="#206787" stroke="none" d="
M 497.95 276.3
Q 497.95 276.25 497.85 276.35
L 497.95 276.45 498.05 276.45
Q 498.15 276.55 498 276.55
L 497.85 276.55
Q 497.65 276.55 497.75 276.65 498.15 276.7 498.75 276.6
L 498.8 276.55 498.8 276.5
Q 498.2 276.3 497.95 276.3 Z"/>
</g>

<g id="Layer0_0_MEMBER_25_MEMBER_4_MEMBER_0_FILL">
<path fill="#206787" stroke="none" d="
M 499.15 276.5
L 499.2 276.55
Q 499.05 276.5 498.9 276.55
L 498.85 276.6 498.9 276.65 499.15 276.7
Q 499.3 276.55 499.15 276.5 Z"/>
</g>

<g id="Layer0_0_MEMBER_25_MEMBER_5_MEMBER_0_FILL">
<path fill="#206787" stroke="none" d="
M 497.7 276.35
L 497.75 276.25 497.7 276.25 497.3 275.95
Q 497 275.75 496.85 275.75
L 496.7 275.75 496.45 275.65 496.05 275.8 495.95 275.9 496.15 275.9
Q 496.3 275.85 496.5 275.95
L 496.8 276.1
Q 497 276.1 497.1 276.2
L 497.15 276.3 497.25 276.35 497.7 276.35 Z"/>
</g>

<g id="Layer0_0_MEMBER_25_MEMBER_6_MEMBER_0_FILL">
<path fill="#206787" stroke="none" d="
M 497 276.6
L 497 276.65
Q 497.2 276.75 497.3 276.7
L 497.2 276.55 497 276.6 Z"/>
</g>

<g id="Layer0_0_MEMBER_25_MEMBER_7_MEMBER_0_FILL">
<path fill="#206787" stroke="none" d="
M 485.2 262.3
L 484.05 261.85
Q 483.45 261.6 483.05 261.85 482.15 262.6 481.7 262.8 481.4 262.95 481.55 263.25 481.65 263.4 481.85 263.7 482.1 264 481.6 264.15 481.35 263.95 481.15 264.15 481.05 264.25 481.15 264.5 481.2 264.7 481.4 264.75 481.6 264.8 482.2 264.9 482.65 265 482.35 265.15 481.55 265.65 481.6 266.15 481.6 266.85 482.05 266.75 482.35 266.75 482.55 267.1 482.65 267.15 482.95 267.2 483.2 267.25 483 267.45 482.65 267.8 481.3 268.7 481.45 268.9 483.75 267.3 484.05 266.7 484.55 266.6 484.7 266.6 484.95 266.5 485.25 266.45 485.6 266.55 486.2 266.7 487.25 267.85 487.55 268.05 488 268.65 488.4 269.25 488.6 269.75 488.8 270.15 488.85 270.8 488.85 271.1 488.9 271.8 489.25 273.25 489.8 273.65 489.95 273.75 490.65 274.8 491.3 275.8 491.4 275.8 491.7 275.8 491.05 274.85 490.7 274.35 490.6 274.1 490.55 273.85 491 274.45 491.65 275.3 492.25 276.05 492.3 276.25 492.9 276.75 493.5 277.2 493.85 277.25 494.35 277.3 494.9 277.45 495.5 277.6 495.55 277.75 495.6 277.9 496 278.25 496.45 278.6 496.55 278.6 496.75 278.65 496.85 278.4 496.95 278.35 497 278.5 497.05 278.55 497.1 278.65
L 497.25 278.45
Q 497.25 278.3 497 278.25 496.8 278.15 496.7 278.25 496.5 278.45 496.25 278.2 496 278 496.1 277.75 496.3 277.1 495.85 277.1 495.15 277.1 495.25 276.85 495.45 276.55 495.55 276.35 495.7 276.05 495.55 276.05 495.15 276.05 494.85 276.35 494.6 276.6 494.25 276.6 493.8 276.6 493.7 276.15 493.6 275.65 493.65 275.2 493.65 274.7 493.85 274.65 494.65 274.5 494.7 274.5 495.1 274.6 495.2 274.35 495.95 274.1 496.1 274.45
L 496.5 275.35
Q 496.65 275.35 496.7 275.1 496.8 274.75 496.55 274.4 496.35 274.1 496.9 273.7
L 497.55 273.15
Q 497.55 272.95 497.6 272.8 497.6 272.55 497.75 272.35 498 272.05 498.5 271.8 498.5 271.7 498.7 271.4 498.9 271.1 499 271.1 499.05 271.1 499.2 271.3 499.3 271.5 499.4 271.45 500.45 270.75 500.35 270.7 500 270.65 499.75 270.6 499.4 270.5 499.55 270.1 499.7 269.7 499.9 269.7 500.3 269.7 500.45 269.55 500.5 269.5 500.85 269.3 501.1 269.1 501.05 268.95 500.8 268.5 500.65 268.4 499.9 267.8 499.65 267 499.4 266.2 499.25 266.65 499.2 267 499.05 267.1 498.85 267.2 498.7 266.9 498.35 266.1 498.15 266 497.75 265.75 497.6 265.75 497.3 265.65 497.2 265.65 497 265.6 497.05 265.85 497.05 266.85 497 266.9 496.95 266.95 497.15 267.3 497.4 267.65 497.3 267.8 497.25 267.9 496.95 268.15 496.7 268.35 496.75 268.45 496.8 268.55 496.9 268.95 497 269.3 496.7 269.2 496.4 269.1 496.4 268.75 496.4 268.4 496.35 268.3 495.6 268.2 495.4 268 494.7 267.45 494.4 267.2 493.85 266.75 494.4 265.95 494.6 265.6 495.1 265.05 495.6 264.55 495.65 264.4 495.7 264.25 496.1 264.1 496.55 263.9 496.5 263.75 496.5 262.85 496.4 262.8 495.9 262.3 495.75 262.65 495.45 263.7 495.3 263.5 495.1 262.55 494.85 262.45 494.65 262.4 494.45 262.05 494.3 261.75 494.3 261.5 494.3 261.3 494.45 261.05 494.65 260.75 494.7 260.65
L 494.8 260.3
Q 494.8 260.1 494.55 260.05 494.05 259.9 493.95 260.6 493.9 261 493.9 261.65 493.85 261.8 493.95 262.35 494.1 262.9 494 263 493.8 263.45 493.3 263.4 492.2 262.8 491.9 263.05 490.7 263.85 490.5 263.45 490.2 262.65 489.45 262.55 488.6 262.6 488.5 262.45
L 488.3 262.2
Q 488.2 262.05 488.05 262.15 487.2 262.9 486.9 262.9 486 262.5 485.2 262.3 Z"/>
</g>

<g id="Layer0_0_MEMBER_25_MEMBER_8_MEMBER_0_FILL">
<path fill="#206787" stroke="none" d="
M 500.5 269.75
L 500.35 270.2 500.35 270.3
Q 500.4 270.4 500.7 270.4 500.9 270.4 501.1 270.6 501.4 270.7 501.55 270.65
L 501.45 270.25 501.3 270
Q 501.2 269.75 501 269.6 500.6 269.4 500.5 269.75 Z"/>
</g>

<g id="Layer0_0_MEMBER_25_MEMBER_9_MEMBER_0_FILL">
<path fill="#206787" stroke="none" d="
M 508.75 253.55
Q 508.6 253.15 508.25 253.3 508 253.4 507.6 253.7 507.35 253.9 507.25 253.8 507.15 252.9 506.85 252.95 506.3 253.1 505.95 253.2 505.25 253.35 505.45 253.15 505.5 253.05 506.35 252.75 507 252.5 506.6 252.2 506.55 252.15 506 251.25 505.65 250.7 504.95 250.85 504.25 251 503.4 251.55 502.4 252.3 502.15 252.4 500.35 253.25 500.05 253.55 499.1 254.5 499.2 255 499.25 255.25 499.4 255.6 499.45 255.9 499 256.15 498.25 256.55 498.1 256.7 497.8 257 498.15 257.2 498.7 257.55 498.6 258 498.5 258.15 498.6 258.4 498.65 258.65 498.85 258.7 499.15 258.8 499.25 258.75 499.6 258.75 500 258.65 500.3 258.7 500.6 259.6 500.8 260.1 501.3 261.05 501.55 261.6 501.55 261.95 501.55 262.2 501.35 263.1 501.2 263.85 501.3 264.2 501.5 264.8 502.05 265.75 502.7 266.8 502.95 266.65 503.15 266.55 503.45 265.75 503.75 264.85 503.95 264.7 504.15 264.55 504.5 264 504.9 263.5 505.35 263.4 506.1 263.2 506.4 262.95 506.95 262.6 507 261.9 507.15 260.55 507.2 259.65 507.3 258 507.15 257 507.05 256.3 507.7 255.45 508.05 254.95 508.6 254.3 508.85 253.9 508.75 253.55 Z"/>
</g>

<g id="Layer0_0_MEMBER_25_MEMBER_10_MEMBER_0_FILL">
<path fill="#206787" stroke="none" d="
M 495.55 260.3
L 495.3 260.25
Q 494.75 261.35 495.05 261.75 495.55 262.35 496 262.4 497.05 262.4 497.15 262.5 498.4 263.5 497.95 263.95 497.35 264.55 497.15 264.8 496.8 265.2 497.3 265.1 497.9 265 498.45 265.5 499 266 499.05 265.95 499.3 265.85 499.35 265.6 499.4 265.25 499.2 264.9 499 264.5 499 264.25 499.05 263.95 499.25 264.2 499.5 264.5 499.8 264.35 500.15 264.2 499.6 263.65 499.15 263.15 498.95 262.65 498.75 262.2 498.65 262.1 497.95 261.6 497.4 260.95
L 496.75 260.45
Q 496.4 260.2 496.1 260.2 495.85 260.2 495.85 260.35 495.8 260.45 495.7 260.4
L 495.55 260.3 Z"/>
</g>

<g id="Layer0_0_MEMBER_25_MEMBER_11_MEMBER_0_FILL">
<path fill="#206787" stroke="none" d="
M 499.8 253.1
Q 500.25 252.2 499.3 252 497.7 251.6 497.1 251.85 494.75 253.05 494.75 253.25 494.75 253.9 494.95 254.15 495.3 254.85 495.85 254.7 496.35 254.6 496.6 254.75 496.8 254.95 496.25 255 495.75 255.1 495.2 254.95 494.65 254.75 494.55 254.45 494.45 254.1 494.25 254.05 493.95 254.05 493.9 254.4 493.8 255.6 493.95 255.9 494.05 256.1 494.15 256.5 494.3 256.8 494.65 256.9 495.65 257.1 495.35 257.55 494.9 258.3 494.6 258.25 493.75 257.75 493.75 258 493.75 258.15 494.25 258.65 494.45 258.85 494.4 259.2 494.35 259.55 494.5 259.6 494.75 259.75 495.7 259.85 496.65 259.95 496.65 259.8
L 496.75 259.25
Q 496.75 258.85 496.35 258.9 495.7 259 495.5 259.05 495.1 259.1 495.05 258.9 495 258.65 495.15 258.45 495.35 258.25 495.65 258.35 496.8 258.7 496.9 258.25 496.9 257.95 496.9 257.75 496.9 257.35 497.1 257.25 497.35 257.05 497.6 256.65 497.85 256.2 497.75 256 497.7 255.8 498.2 255.1 498.5 254.8 498.75 254.5 499.6 253.5 499.8 253.1 Z"/>
</g>

<g id="Layer0_0_MEMBER_25_MEMBER_12_MEMBER_0_FILL">
<path fill="#206787" stroke="none" d="
M 490.3 260.1
Q 489.85 259.9 489.1 259.9 488.85 259.9 488.85 260.15 488.7 261.15 488.8 261.3 488.9 261.45 489.05 261.75 489.25 261.95 489.4 261.75 489.55 261.6 489.65 261.2 489.75 260.9 489.9 260.85 491.1 260.4 490.3 260.1 Z"/>
</g>

<g id="Layer0_0_MEMBER_25_MEMBER_13_MEMBER_0_FILL">
<path fill="#206787" stroke="none" d="
M 491.7 260.85
Q 491.55 261.05 491.35 260.95 490.7 260.4 490.45 260.55
L 490 260.9
Q 489.75 261.5 490 261.5 490.15 261.55 490.05 261.9 490.1 262 490.65 262 490.9 262 491 262.1 491.15 262.2 490.85 262.25 490.1 262.4 490.35 262.65 490.4 262.65 490.7 263.1 490.95 263.35 491.2 263.25 492.1 262.85 492.35 262.85 492.45 262.85 492.8 262.9 493.1 262.85 492.95 262.55 492.45 261.95 492.4 261.6 492.4 261 492.35 260.7 492.3 260.1 492.1 260.3 492 260.4 491.7 260.85 Z"/>
</g>

<g id="Layer0_0_MEMBER_25_MEMBER_14_MEMBER_0_FILL">
<path fill="#206787" stroke="none" d="
M 490.3 258.2
Q 491.1 257.2 490 257.65 489.65 257.85 489.4 258.2 489.15 258.55 489.35 258.65 489.5 258.7 489.85 258.55 490.15 258.4 490.3 258.2 Z"/>
</g>

<g id="Layer0_0_MEMBER_25_MEMBER_15_MEMBER_0_FILL">
<path fill="#206787" stroke="none" d="
M 490.7 258.5
L 490.35 258.45
Q 490.25 258.7 490.05 259.1 489.95 259.35 490.25 259.4 490.7 259.4 490.8 259.7 490.8 259.75 491.55 259.55 491.75 259.5 492.05 259.45 492.25 259.35 492.3 259.15 492.35 258.8 492 258.35 491.7 258.05 491.3 258.55 491.15 258.75 490.95 258.7 490.75 258.65 490.7 258.5 Z"/>
</g>

<g id="Layer0_0_MEMBER_25_MEMBER_16_MEMBER_0_FILL">
<path fill="#206787" stroke="none" d="
M 491 256.5
L 490.9 256.6 490.85 256.75
Q 491 256.9 491.25 256.9 491.5 256.9 491.55 256.8 491.75 256.6 491.4 256.5 491.25 256.4 491 256.5 Z"/>
</g>

<g id="Layer0_0_MEMBER_25_MEMBER_17_MEMBER_0_FILL">
<path fill="#206787" stroke="none" d="
M 497.2 263.7
L 497.35 263.8 497.45 263.8
Q 497.5 263.75 497.65 263.5 497.65 263.3 497.55 263.25 497.4 263.1 497.2 263.35
L 497.2 263.7 Z"/>
</g>

<g id="Layer0_0_MEMBER_25_MEMBER_18_MEMBER_0_FILL">
<path fill="#206787" stroke="none" d="
M 495.95 264.45
Q 495.85 264.35 495.75 264.4
L 495.65 264.5
Q 495.65 264.55 495.5 264.85 495.4 265.1 495.5 265.2 495.6 265.4 495.8 265.5 496.05 265.55 496.1 265.45 496.15 265.35 496.45 265.35 496.8 265.35 496.55 264.95 496.2 264.9 495.95 264.45 Z"/>
</g>

<g id="Layer0_0_MEMBER_25_MEMBER_19_MEMBER_0_FILL">
<path fill="#206787" stroke="none" d="
M 493.8 260.8
Q 493.7 260.75 493.75 260.35 493.75 260.05 493.55 260 493.2 260.25 493.05 260.3 492.95 260.4 493 260.45 493.05 260.65 492.9 260.75 492.75 260.85 492.8 260.95 492.85 261 493 261.25 493.15 261.4 493.3 261.65 493.4 261.75 493.55 261.6 494 261 493.8 260.8 Z"/>
</g>

<g id="Layer0_0_MEMBER_25_MEMBER_20_MEMBER_0_FILL">
<path fill="#206787" stroke="none" d="
M 492.2 255.9
L 492.15 256
Q 492.25 256.2 492.45 256.45 492.45 256.55 492.35 256.7 492.3 256.85 492.55 256.95 492.7 257 493.1 257.3 493.25 257.45 493.3 257.3 493.4 256.85 493.25 256.55 492.85 256.05 492.65 255.95 492.3 255.8 492.2 255.9 Z"/>
</g>

<g id="Layer0_0_MEMBER_25_MEMBER_21_MEMBER_0_FILL">
<path fill="#206787" stroke="none" d="
M 491.05 257.15
L 490.9 257.2
Q 490.8 257.25 490.85 257.45 490.9 257.7 491.05 257.7 491.25 257.7 491.45 257.45 491.7 257.2 491.5 257.15 491.3 257.1 491.05 257.15 Z"/>
</g>

<g id="Layer0_0_MEMBER_25_MEMBER_22_MEMBER_0_FILL">
<path fill="#206787" stroke="none" d="
M 492.7 258.45
L 492.5 258.35
Q 492.5 258.4 492.6 258.8 492.65 259.1 492.8 259.1 492.95 259.1 493.1 259.3 493.25 259.45 493.45 259.4 493.65 259.35 493.65 259 493.65 258.15 493.3 258.25 492.75 258.5 492.7 258.45 Z"/>
</g>

<g id="Layer0_0_MEMBER_25_MEMBER_23_MEMBER_0_FILL">
<path fill="#206787" stroke="none" d="
M 493.9 256.6
L 493.45 256.5
Q 493.5 256.6 493.55 256.95 493.6 257.25 493.8 257.25 494 257.25 494.05 257 494.1 256.75 493.9 256.6 Z"/>
</g>

<g id="Layer0_0_MEMBER_25_MEMBER_24_MEMBER_0_FILL">
<path fill="#206787" stroke="none" d="
M 494.1 259
L 494 259.05
Q 493.6 259.45 493.9 259.55
L 494.2 259.7
Q 494.35 259.7 494.3 259.4 494.25 259.05 494.1 259 Z"/>
</g>

<g id="Layer0_0_MEMBER_26_MEMBER_0_FILL">
<path fill="#3AC2DB" stroke="none" d="
M 481.5 276.85
Q 478 274.2 475.8 271.15 474.3 268.6 474.3 268.55
L 474.05 268.65
Q 474.05 268.7 475.6 271.25 477.8 274.35 481.3 277.05 492.55 285.65 512.8 287.25
L 512.8 287
Q 492.7 285.45 481.5 276.85 Z"/>
</g>

<g id="Layer0_0_MEMBER_27_MEMBER_0_FILL">
<path fill="#3AC2DB" stroke="none" d="
M 485.3 290.5
L 485.55 290.45
Q 480.5 274.75 486.45 263.55 490.2 256.45 497.95 251.75 501.85 249.4 505.1 248.45
L 505 248.2
Q 501.8 249.2 497.85 251.55 490.05 256.25 486.25 263.4 480.25 274.75 485.3 290.5 Z"/>
</g>

<g id="Layer0_0_MEMBER_28_MEMBER_0_FILL">
<path fill="#3AC2DB" stroke="none" d="
M 488.4 292.2
Q 503.8 286.55 509 274.85 512.3 267.35 511.05 258.05 509.15 250.2 509.1 250.1
L 508.9 250.2
Q 508.95 250.3 510.8 258.05 512.05 267.3 508.75 274.75 503.6 286.4 488.3 291.95
L 488.4 292.2 Z"/>
</g>

<g id="Layer0_0_MEMBER_29_MEMBER_0_FILL">
<path fill="#3AC2DB" stroke="none" d="
M 483.85 255
Q 482.35 252.5 482.3 252.45
L 482.1 252.55
Q 482.1 252.6 483.6 255.15 485.8 258.25 489.25 260.9 493.9 264.5 500.5 266.95 509.15 270.15 520.3 271
L 520.3 270.75
Q 500.45 269.25 489.4 260.7 486 258.1 483.85 255 Z"/>
</g>

<g id="Layer0_0_MEMBER_30_MEMBER_0_MEMBER_0_FILL">
<path fill="#EA5645" stroke="none" d="
M 474.65 337.15
L 453.25 337.15 453.25 355.75 474.65 355.75 474.65 337.15 Z"/>
</g>

<g id="Layer0_0_MEMBER_30_MEMBER_1_MEMBER_0_FILL">
<path fill="#D13431" stroke="none" d="
M 474.65 350.75
L 453.25 350.75 453.25 355.75 474.65 355.75 474.65 350.75 Z"/>
</g>

<g id="Layer0_0_MEMBER_30_MEMBER_2_FILL">
<path fill="#FFC23A" stroke="none" d="
M 469.4 337.15
L 459.9 337.15 459.9 355.75 469.4 355.75 469.4 337.15 Z"/>
</g>

<g id="Layer0_0_MEMBER_30_MEMBER_3_FILL">
<path fill="#F9A431" stroke="none" d="
M 469.45 350.75
L 459.9 350.75 459.9 355.75 469.45 355.75 469.45 350.75 Z"/>
</g>
</defs>

<g transform="matrix( 8, 0, 0, 8, -3405.8,-1877.45) ">
<use xlink:href="#Layer0_0_MEMBER_0_MEMBER_0_FILL"/>
</g>

<g transform="matrix( 8, 0, 0, 8, -3405.8,-1877.45) ">
<use xlink:href="#Layer0_0_MEMBER_1_MEMBER_0_FILL"/>
</g>

<g transform="matrix( 8, 0, 0, 8, -3405.8,-1877.45) ">
<use xlink:href="#Layer0_0_MEMBER_2_MEMBER_0_FILL"/>
</g>

<g transform="matrix( 8, 0, 0, 8, -3405.8,-1877.45) ">
<use xlink:href="#Layer0_0_MEMBER_3_MEMBER_0_FILL"/>
</g>

<g transform="matrix( 8, 0, 0, 8, -3405.8,-1877.45) ">
<use xlink:href="#Layer0_0_MEMBER_4_MEMBER_0_FILL"/>
</g>

<g transform="matrix( 8, 0, 0, 8, -3405.8,-1877.45) ">
<use xlink:href="#Layer0_0_MEMBER_5_MEMBER_0_FILL"/>
</g>

<g transform="matrix( 8, 0, 0, 8, -3405.8,-1877.45) ">
<use xlink:href="#Layer0_0_MEMBER_6_MEMBER_0_FILL"/>
</g>

<g transform="matrix( 8, 0, 0, 8, -3405.8,-1877.45) ">
<use xlink:href="#Layer0_0_MEMBER_7_MEMBER_0_FILL"/>
</g>

<g transform="matrix( 8, 0, 0, 8, -3405.8,-1877.45) ">
<use xlink:href="#Layer0_0_MEMBER_8_MEMBER_0_FILL"/>
</g>

<g transform="matrix( 8, 0, 0, 8, -3405.8,-1877.45) ">
<use xlink:href="#Layer0_0_MEMBER_9_MEMBER_0_FILL"/>
</g>

<g transform="matrix( 8, 0, 0, 8, -3405.8,-1877.45) ">
<use xlink:href="#Layer0_0_MEMBER_10_MEMBER_0_FILL"/>
</g>

<g transform="matrix( 8, 0, 0, 8, -3405.8,-1877.45) ">
<use xlink:href="#Layer0_0_MEMBER_11_MEMBER_0_FILL"/>
</g>

<g transform="matrix( 8, 0, 0, 8, -3405.8,-1877.45) ">
<use xlink:href="#Layer0_0_MEMBER_12_MEMBER_0_FILL"/>
</g>

<g transform="matrix( 8, 0, 0, 8, -3405.8,-1877.45) ">
<use xlink:href="#Layer0_0_MEMBER_13_MEMBER_0_FILL"/>
</g>

<g transform="matrix( 8, 0, 0, 8, -3405.8,-1877.45) ">
<use xlink:href="#Layer0_0_MEMBER_14_MEMBER_0_FILL"/>
</g>

<g transform="matrix( 8, 0, 0, 8, -3405.8,-1877.45) ">
<use xlink:href="#Layer0_0_MEMBER_15_MEMBER_0_FILL"/>
</g>

<g transform="matrix( 8, 0, 0, 8, -3405.8,-1877.45) ">
<use xlink:href="#Layer0_0_MEMBER_16_MEMBER_0_FILL"/>
</g>

<g transform="matrix( 8, 0, 0, 8, -3405.8,-1877.45) ">
<use xlink:href="#Layer0_0_MEMBER_17_MEMBER_0_FILL"/>
</g>

<g transform="matrix( 8, 0, 0, 8, -3405.8,-1877.45) ">
<use xlink:href="#Layer0_0_MEMBER_18_MEMBER_0_FILL"/>
</g>

<g transform="matrix( 8, 0, 0, 8, -3405.8,-1877.45) ">
<use xlink:href="#Layer0_0_MEMBER_19_MEMBER_0_FILL"/>
</g>

<g transform="matrix( 8, 0, 0, 8, -3405.8,-1877.45) ">
<use xlink:href="#Layer0_0_MEMBER_20_MEMBER_0_FILL"/>
</g>

<g transform="matrix( 8, 0, 0, 8, -3405.8,-1877.45) ">
<use xlink:href="#Layer0_0_MEMBER_21_MEMBER_0_FILL"/>
</g>

<g transform="matrix( 8, 0, 0, 8, -3405.8,-1877.45) ">
<use xlink:href="#Layer0_0_MEMBER_22_MEMBER_0_FILL"/>
</g>

<g transform="matrix( 8, 0, 0, 8, -3405.8,-1877.45) ">
<use xlink:href="#Layer0_0_MEMBER_23_MEMBER_0_FILL"/>
</g>

<g transform="matrix( 8, 0, 0, 8, -3405.8,-1877.45) ">
<use xlink:href="#Layer0_0_MEMBER_24_MEMBER_0_FILL"/>
</g>

<g transform="matrix( 8, 0, 0, 8, -3405.8,-1877.45) ">
<use xlink:href="#Layer0_0_MEMBER_25_MEMBER_0_MEMBER_0_FILL"/>
</g>

<g transform="matrix( 8, 0, 0, 8, -3405.8,-1877.45) ">
<use xlink:href="#Layer0_0_MEMBER_25_MEMBER_1_MEMBER_0_FILL"/>
</g>

<g transform="matrix( 8, 0, 0, 8, -3405.8,-1877.45) ">
<use xlink:href="#Layer0_0_MEMBER_25_MEMBER_2_MEMBER_0_FILL"/>
</g>

<g transform="matrix( 8, 0, 0, 8, -3405.8,-1877.45) ">
<use xlink:href="#Layer0_0_MEMBER_25_MEMBER_3_MEMBER_0_FILL"/>
</g>

<g transform="matrix( 8, 0, 0, 8, -3405.8,-1877.45) ">
<use xlink:href="#Layer0_0_MEMBER_25_MEMBER_4_MEMBER_0_FILL"/>
</g>

<g transform="matrix( 8, 0, 0, 8, -3405.8,-1877.45) ">
<use xlink:href="#Layer0_0_MEMBER_25_MEMBER_5_MEMBER_0_FILL"/>
</g>

<g transform="matrix( 8, 0, 0, 8, -3405.8,-1877.45) ">
<use xlink:href="#Layer0_0_MEMBER_25_MEMBER_6_MEMBER_0_FILL"/>
</g>

<g transform="matrix( 8, 0, 0, 8, -3405.8,-1877.45) ">
<use xlink:href="#Layer0_0_MEMBER_25_MEMBER_7_MEMBER_0_FILL"/>
</g>

<g transform="matrix( 8, 0, 0, 8, -3405.8,-1877.45) ">
<use xlink:href="#Layer0_0_MEMBER_25_MEMBER_8_MEMBER_0_FILL"/>
</g>

<g transform="matrix( 8, 0, 0, 8, -3405.8,-1877.45) ">
<use xlink:href="#Layer0_0_MEMBER_25_MEMBER_9_MEMBER_0_FILL"/>
</g>

<g transform="matrix( 8, 0, 0, 8, -3405.8,-1877.45) ">
<use xlink:href="#Layer0_0_MEMBER_25_MEMBER_10_MEMBER_0_FILL"/>
</g>

<g transform="matrix( 8, 0, 0, 8, -3405.8,-1877.45) ">
<use xlink:href="#Layer0_0_MEMBER_25_MEMBER_11_MEMBER_0_FILL"/>
</g>

<g transform="matrix( 8, 0, 0, 8, -3405.8,-1877.45) ">
<use xlink:href="#Layer0_0_MEMBER_25_MEMBER_12_MEMBER_0_FILL"/>
</g>

<g transform="matrix( 8, 0, 0, 8, -3405.8,-1877.45) ">
<use xlink:href="#Layer0_0_MEMBER_25_MEMBER_13_MEMBER_0_FILL"/>
</g>

<g transform="matrix( 8, 0, 0, 8, -3405.8,-1877.45) ">
<use xlink:href="#Layer0_0_MEMBER_25_MEMBER_14_MEMBER_0_FILL"/>
</g>

<g transform="matrix( 8, 0, 0, 8, -3405.8,-1877.45) ">
<use xlink:href="#Layer0_0_MEMBER_25_MEMBER_15_MEMBER_0_FILL"/>
</g>

<g transform="matrix( 8, 0, 0, 8, -3405.8,-1877.45) ">
<use xlink:href="#Layer0_0_MEMBER_25_MEMBER_16_MEMBER_0_FILL"/>
</g>

<g transform="matrix( 8, 0, 0, 8, -3405.8,-1877.45) ">
<use xlink:href="#Layer0_0_MEMBER_25_MEMBER_17_MEMBER_0_FILL"/>
</g>

<g transform="matrix( 8, 0, 0, 8, -3405.8,-1877.45) ">
<use xlink:href="#Layer0_0_MEMBER_25_MEMBER_18_MEMBER_0_FILL"/>
</g>

<g transform="matrix( 8, 0, 0, 8, -3405.8,-1877.45) ">
<use xlink:href="#Layer0_0_MEMBER_25_MEMBER_19_MEMBER_0_FILL"/>
</g>

<g transform="matrix( 8, 0, 0, 8, -3405.8,-1877.45) ">
<use xlink:href="#Layer0_0_MEMBER_25_MEMBER_20_MEMBER_0_FILL"/>
</g>

<g transform="matrix( 8, 0, 0, 8, -3405.8,-1877.45) ">
<use xlink:href="#Layer0_0_MEMBER_25_MEMBER_21_MEMBER_0_FILL"/>
</g>

<g transform="matrix( 8, 0, 0, 8, -3405.8,-1877.45) ">
<use xlink:href="#Layer0_0_MEMBER_25_MEMBER_22_MEMBER_0_FILL"/>
</g>

<g transform="matrix( 8, 0, 0, 8, -3405.8,-1877.45) ">
<use xlink:href="#Layer0_0_MEMBER_25_MEMBER_23_MEMBER_0_FILL"/>
</g>

<g transform="matrix( 8, 0, 0, 8, -3405.8,-1877.45) ">
<use xlink:href="#Layer0_0_MEMBER_25_MEMBER_24_MEMBER_0_FILL"/>
</g>

<g transform="matrix( 8, 0, 0, 8, -3405.8,-1877.45) ">
<use xlink:href="#Layer0_0_MEMBER_26_MEMBER_0_FILL"/>
</g>

<g transform="matrix( 8, 0, 0, 8, -3405.8,-1877.45) ">
<use xlink:href="#Layer0_0_MEMBER_27_MEMBER_0_FILL"/>
</g>

<g transform="matrix( 8, 0, 0, 8, -3405.8,-1877.45) ">
<use xlink:href="#Layer0_0_MEMBER_28_MEMBER_0_FILL"/>
</g>

<g transform="matrix( 8, 0, 0, 8, -3405.8,-1877.45) ">
<use xlink:href="#Layer0_0_MEMBER_29_MEMBER_0_FILL"/>
</g>

<g transform="matrix( 8, 0, 0, 8, -3405.8,-1877.45) ">
<use xlink:href="#Layer0_0_MEMBER_30_MEMBER_0_MEMBER_0_FILL"/>
</g>

<g transform="matrix( 8, 0, 0, 8, -3405.8,-1877.45) ">
<use xlink:href="#Layer0_0_MEMBER_30_MEMBER_1_MEMBER_0_FILL"/>
</g>

<g transform="matrix( 8, 0, 0, 8, -3405.8,-1877.45) ">
<use xlink:href="#Layer0_0_MEMBER_30_MEMBER_2_FILL"/>
</g>

<g transform="matrix( 8, 0, 0, 8, -3405.8,-1877.45) ">
<use xlink:href="#Layer0_0_MEMBER_30_MEMBER_3_FILL"/>
</g>
</svg>
