
<svg xmlns="http://www.w3.org/2000/svg" version="1.1" xmlns:xlink="http://www.w3.org/1999/xlink" preserveAspectRatio="none" x="0px" y="0px" width="1024px" height="1024px" viewBox="0 0 1024 1024">
<defs>
<g id="Layer0_0_MEMBER_0_MEMBER_0_FILL">
<path fill="#E5E5E5" stroke="none" d="
M 107.35 394.15
Q 105.9 394.15 104.6 393.6
L 98.7 390.5 82.45 399.5
Q 65.85 408.85 64.2 410.85 62.6 412.9 62.4 416.1 62.3 417.75 62.5 418.95
L 107.35 394.15 Z"/>
</g>

<g id="Layer0_0_MEMBER_1_MEMBER_0_FILL">
<path fill="#E5E5E5" stroke="none" d="
M 21.05 394.1
L 20.15 394.15 64.45 420.25
Q 65.05 418.7 65.3 416.75 65.85 412.9 64.2 410.85 62.6 408.85 45.3 399.5
L 28.3 390.5
Q 24.25 393 22.9 393.6 22.1 393.95 21.05 394.1 Z"/>
</g>

<g id="Layer0_0_MEMBER_2_MEMBER_0_FILL">
<path fill="#F9A431" stroke="none" d="
M 107.9 393.15
L 106.7 393.15 69.25 414.9 70.95 415.15 107.9 393.15 Z"/>
</g>

<g id="Layer0_0_MEMBER_3_MEMBER_0_FILL">
<path fill="#FFC23A" stroke="none" d="
M 69.2 415.75
L 69.45 477.2 108.2 450.25 107.9 393.15 69.2 415.75 Z"/>
</g>

<g id="Layer0_0_MEMBER_4_MEMBER_0_FILL">
<path fill="#F9A431" stroke="none" d="
M 20.15 393.05
L 18.95 393.05 56.25 415.25 57.55 414.8 20.15 393.05 Z"/>
</g>

<g id="Layer0_0_MEMBER_5_MEMBER_0_MEMBER_0_FILL">
<path fill="#FFC23A" stroke="none" d="
M 57.35 477.1
L 57.6 415.65 18.95 393.05 18.7 450.25 57.35 477.1 Z"/>
</g>

<g id="Layer0_0_MEMBER_6_MEMBER_0_FILL">
<path fill="#F9A431" stroke="none" d="
M 67.85 415.8
Q 66 416.7 63.75 416.75 61.55 416.8 59.2 415.75
L 57.35 414.7 56.6 415 56.9 415.9
Q 57.25 416.8 57.65 416.9 59 417.4 60.85 417.8 63.8 418.4 65.4 418.1 66.95 417.8 68.8 416.4
L 70.3 415 69.25 414.9
Q 68.8 415.35 67.85 415.8 Z"/>
</g>

<g id="Layer0_0_MEMBER_7_MEMBER_0_FILL">
<path fill="#F9A431" stroke="none" d="
M 70.3 415
Q 67.25 417.25 63.45 417.25 59.65 417.25 56.6 415
L 56.6 476.7
Q 59.65 478.95 63.45 478.95 67.25 478.95 70.3 476.7
L 70.3 415 Z"/>
</g>

<g id="Layer0_0_MEMBER_8_MEMBER_0_FILL">
<path fill="#F9A431" stroke="none" d="
M 18.7 450.25
L 36.85 462.85 38.3 404.3 18.95 393.05 18.7 450.25 Z"/>
</g>

<g id="Layer0_0_MEMBER_9_MEMBER_0_FILL">
<path fill="#CECECD" stroke="none" d="
M 105.45 393.9
L 102 392.25 83.55 402.2
Q 64.65 412.9 62.5 416.7
L 64.9 416.85
Q 67.65 416.6 69.25 414.9
L 105.45 393.9 Z"/>
</g>

<g id="Layer0_0_MEMBER_10_MEMBER_0_FILL">
<path fill="#CECECD" stroke="none" d="
M 25.35 392.25
L 21.7 393.95 59.05 415.65
Q 61.05 416.6 62.5 416.7
L 64.55 414.45 25.35 392.25 Z"/>
</g>

<g id="Layer0_0_MEMBER_11_MEMBER_0_FILL">
<path fill="#EA5645" stroke="none" d="
M 40.65 397.6
Q 40.7 401.15 42.45 402.95 45.05 404.9 48.65 406.45 47.95 405.35 47.6 403.65 46.9 400.25 48.7 397.1
L 43.85 399 40.95 394.35 40.65 397.6 Z"/>
</g>

<g id="Layer0_0_MEMBER_12_MEMBER_0_MEMBER_0_FILL">
<path fill="#BC4436" stroke="none" d="
M 95.85 415.4
L 87.95 419.4 78.5 454.75 85.25 451.3 86.9 443.9 94.95 439.8 96.05 445.8 102.95 442.3 95.85 415.4
M 88.2 438
L 91.6 422.8 94 435.05 88.2 438 Z"/>
</g>
</defs>

<g transform="matrix( 8, 0, 0, 8, 4.4,-2965.8) ">
<use xlink:href="#Layer0_0_MEMBER_0_MEMBER_0_FILL"/>
</g>

<g transform="matrix( 8, 0, 0, 8, 4.4,-2965.8) ">
<use xlink:href="#Layer0_0_MEMBER_1_MEMBER_0_FILL"/>
</g>

<g transform="matrix( 8, 0, 0, 8, 4.4,-2965.8) ">
<use xlink:href="#Layer0_0_MEMBER_2_MEMBER_0_FILL"/>
</g>

<g transform="matrix( 8, 0, 0, 8, 4.4,-2965.8) ">
<use xlink:href="#Layer0_0_MEMBER_3_MEMBER_0_FILL"/>
</g>

<g transform="matrix( 8, 0, 0, 8, 4.4,-2965.8) ">
<use xlink:href="#Layer0_0_MEMBER_4_MEMBER_0_FILL"/>
</g>

<g transform="matrix( 8, 0, 0, 8, 4.4,-2965.8) ">
<use xlink:href="#Layer0_0_MEMBER_5_MEMBER_0_MEMBER_0_FILL"/>
</g>

<g transform="matrix( 8, 0, 0, 8, 4.4,-2965.8) ">
<use xlink:href="#Layer0_0_MEMBER_6_MEMBER_0_FILL"/>
</g>

<g transform="matrix( 8, 0, 0, 8, 4.4,-2965.8) ">
<use xlink:href="#Layer0_0_MEMBER_7_MEMBER_0_FILL"/>
</g>

<g transform="matrix( 8, 0, 0, 8, 4.4,-2965.8) ">
<use xlink:href="#Layer0_0_MEMBER_8_MEMBER_0_FILL"/>
</g>

<g transform="matrix( 8, 0, 0, 8, 4.4,-2965.8) ">
<use xlink:href="#Layer0_0_MEMBER_9_MEMBER_0_FILL"/>
</g>

<g transform="matrix( 8, 0, 0, 8, 4.4,-2965.8) ">
<use xlink:href="#Layer0_0_MEMBER_10_MEMBER_0_FILL"/>
</g>

<g transform="matrix( 8, 0, 0, 8, 4.4,-2965.8) ">
<use xlink:href="#Layer0_0_MEMBER_11_MEMBER_0_FILL"/>
</g>

<g transform="matrix( 8, 0, 0, 8, 4.4,-2965.8) ">
<use xlink:href="#Layer0_0_MEMBER_12_MEMBER_0_MEMBER_0_FILL"/>
</g>
</svg>
